<mxfile host="app.diagrams.net" agent="Mozilla/5.0 (Windows NT 10.0; Win64; x64) AppleWebKit/537.36 (KHTML, like Gecko) Chrome/130.0.0.0 Safari/537.36" version="24.8.6">
  <diagram name="Page-1" id="xQ9EbDiYEOns9l19nGKe">
    <mxGraphModel grid="1" page="1" gridSize="10" guides="1" tooltips="1" connect="1" arrows="1" fold="1" pageScale="1" pageWidth="827" pageHeight="1169" math="0" shadow="0">
      <root>
        <mxCell id="0" />
        <mxCell id="1" parent="0" />
        <mxCell id="Ux8OBNNx41XkR_GL07Nj-23" style="edgeStyle=orthogonalEdgeStyle;rounded=0;orthogonalLoop=1;jettySize=auto;html=1;entryX=0;entryY=0.5;entryDx=0;entryDy=0;" edge="1" parent="1" source="Ux8OBNNx41XkR_GL07Nj-10" target="Ux8OBNNx41XkR_GL07Nj-21">
          <mxGeometry relative="1" as="geometry" />
        </mxCell>
        <mxCell id="Ux8OBNNx41XkR_GL07Nj-10" value="Integration Phase" style="rounded=1;whiteSpace=wrap;html=1;verticalAlign=top;" vertex="1" parent="1">
          <mxGeometry x="120" y="180" width="220" height="240" as="geometry" />
        </mxCell>
        <mxCell id="Ux8OBNNx41XkR_GL07Nj-11" style="rounded=0;orthogonalLoop=1;jettySize=auto;html=1;exitX=1;exitY=1;exitDx=0;exitDy=0;entryX=0;entryY=0;entryDx=0;entryDy=0;" edge="1" parent="1" source="Ux8OBNNx41XkR_GL07Nj-12" target="Ux8OBNNx41XkR_GL07Nj-14">
          <mxGeometry relative="1" as="geometry" />
        </mxCell>
        <mxCell id="Ux8OBNNx41XkR_GL07Nj-12" value="Integrate" style="rhombus;whiteSpace=wrap;html=1;" vertex="1" parent="1">
          <mxGeometry x="190" y="210" width="80" height="80" as="geometry" />
        </mxCell>
        <mxCell id="Ux8OBNNx41XkR_GL07Nj-13" style="rounded=0;orthogonalLoop=1;jettySize=auto;html=1;exitX=0;exitY=1;exitDx=0;exitDy=0;entryX=0;entryY=0;entryDx=0;entryDy=0;" edge="1" parent="1" source="Ux8OBNNx41XkR_GL07Nj-14" target="Ux8OBNNx41XkR_GL07Nj-18">
          <mxGeometry relative="1" as="geometry" />
        </mxCell>
        <mxCell id="Ux8OBNNx41XkR_GL07Nj-14" value="Test" style="rhombus;whiteSpace=wrap;html=1;" vertex="1" parent="1">
          <mxGeometry x="250" y="270" width="80" height="80" as="geometry" />
        </mxCell>
        <mxCell id="Ux8OBNNx41XkR_GL07Nj-15" style="rounded=0;orthogonalLoop=1;jettySize=auto;html=1;exitX=1;exitY=0;exitDx=0;exitDy=0;entryX=0;entryY=1;entryDx=0;entryDy=0;" edge="1" parent="1" source="Ux8OBNNx41XkR_GL07Nj-16" target="Ux8OBNNx41XkR_GL07Nj-12">
          <mxGeometry relative="1" as="geometry" />
        </mxCell>
        <mxCell id="Ux8OBNNx41XkR_GL07Nj-16" value="Review" style="rhombus;whiteSpace=wrap;html=1;" vertex="1" parent="1">
          <mxGeometry x="130" y="270" width="80" height="80" as="geometry" />
        </mxCell>
        <mxCell id="Ux8OBNNx41XkR_GL07Nj-17" style="rounded=0;orthogonalLoop=1;jettySize=auto;html=1;exitX=0;exitY=1;exitDx=0;exitDy=0;entryX=1;entryY=1;entryDx=0;entryDy=0;" edge="1" parent="1" source="Ux8OBNNx41XkR_GL07Nj-18" target="Ux8OBNNx41XkR_GL07Nj-16">
          <mxGeometry relative="1" as="geometry" />
        </mxCell>
        <mxCell id="Ux8OBNNx41XkR_GL07Nj-18" value="Refine" style="rhombus;whiteSpace=wrap;html=1;direction=south;" vertex="1" parent="1">
          <mxGeometry x="190" y="330" width="80" height="80" as="geometry" />
        </mxCell>
        <mxCell id="Ux8OBNNx41XkR_GL07Nj-29" style="edgeStyle=orthogonalEdgeStyle;rounded=0;orthogonalLoop=1;jettySize=auto;html=1;entryX=0.5;entryY=0;entryDx=0;entryDy=0;" edge="1" parent="1" source="Ux8OBNNx41XkR_GL07Nj-21" target="Ux8OBNNx41XkR_GL07Nj-24">
          <mxGeometry relative="1" as="geometry">
            <Array as="points">
              <mxPoint x="425" y="90" />
              <mxPoint x="230" y="90" />
            </Array>
          </mxGeometry>
        </mxCell>
        <mxCell id="Ux8OBNNx41XkR_GL07Nj-31" style="edgeStyle=orthogonalEdgeStyle;rounded=0;orthogonalLoop=1;jettySize=auto;html=1;exitX=1;exitY=0.5;exitDx=0;exitDy=0;entryX=0;entryY=0.5;entryDx=0;entryDy=0;" edge="1" parent="1" source="Ux8OBNNx41XkR_GL07Nj-21" target="Ux8OBNNx41XkR_GL07Nj-30">
          <mxGeometry relative="1" as="geometry" />
        </mxCell>
        <mxCell id="Ux8OBNNx41XkR_GL07Nj-21" value="Completed Integration" style="rhombus;whiteSpace=wrap;html=1;" vertex="1" parent="1">
          <mxGeometry x="380" y="255" width="90" height="90" as="geometry" />
        </mxCell>
        <mxCell id="Ux8OBNNx41XkR_GL07Nj-25" style="edgeStyle=orthogonalEdgeStyle;rounded=0;orthogonalLoop=1;jettySize=auto;html=1;entryX=0.5;entryY=0;entryDx=0;entryDy=0;" edge="1" parent="1" source="Ux8OBNNx41XkR_GL07Nj-24" target="Ux8OBNNx41XkR_GL07Nj-10">
          <mxGeometry relative="1" as="geometry" />
        </mxCell>
        <mxCell id="Ux8OBNNx41XkR_GL07Nj-24" value="Subsystems" style="rounded=0;whiteSpace=wrap;html=1;" vertex="1" parent="1">
          <mxGeometry x="180" y="110" width="100" height="30" as="geometry" />
        </mxCell>
        <mxCell id="Ux8OBNNx41XkR_GL07Nj-30" value="Testing Phase" style="rounded=1;whiteSpace=wrap;html=1;dashed=1;" vertex="1" parent="1">
          <mxGeometry x="510" y="280" width="100" height="40" as="geometry" />
        </mxCell>
      </root>
    </mxGraphModel>
  </diagram>
</mxfile>
